<mxfile host="app.diagrams.net" modified="2022-04-04T02:37:47.556Z" agent="5.0 (Macintosh; Intel Mac OS X 10_15_4) AppleWebKit/605.1.15 (KHTML, like Gecko) Version/13.1 Safari/605.1.15" etag="Ex2GGgRgaP-1_25U8W1s" version="17.4.0" type="github">
  <diagram id="a45cf8ec-cd66-6f27-3ac3-be6e809c9e4a" name="Page-1">
    <mxGraphModel dx="741" dy="603" grid="1" gridSize="10" guides="1" tooltips="1" connect="1" arrows="1" fold="1" page="1" pageScale="1" pageWidth="827" pageHeight="1169" background="none" math="0" shadow="0">
      <root>
        <mxCell id="0" />
        <mxCell id="1" parent="0" />
        <mxCell id="LVlQhqxn5yzrMmVcVjSm-172" value="" style="fontColor=#0066CC;verticalAlign=top;verticalLabelPosition=bottom;labelPosition=center;align=center;html=1;outlineConnect=0;fillColor=#CCCCCC;strokeColor=#6881B3;gradientColor=none;gradientDirection=north;strokeWidth=2;shape=mxgraph.networks.router;" vertex="1" parent="1">
          <mxGeometry x="90" y="210" width="100" height="30" as="geometry" />
        </mxCell>
        <mxCell id="LVlQhqxn5yzrMmVcVjSm-173" value="SOHO ROUTER" style="text;html=1;resizable=0;autosize=1;align=center;verticalAlign=middle;points=[];fillColor=none;strokeColor=none;rounded=0;" vertex="1" parent="1">
          <mxGeometry x="90" y="160" width="100" height="20" as="geometry" />
        </mxCell>
        <mxCell id="LVlQhqxn5yzrMmVcVjSm-174" value="DHCP for 192.168.105.o/24" style="text;html=1;resizable=0;autosize=1;align=center;verticalAlign=middle;points=[];fillColor=none;strokeColor=none;rounded=0;" vertex="1" parent="1">
          <mxGeometry x="70" y="180" width="160" height="20" as="geometry" />
        </mxCell>
        <mxCell id="LVlQhqxn5yzrMmVcVjSm-175" value="192.168.105.1" style="text;html=1;resizable=0;autosize=1;align=center;verticalAlign=middle;points=[];fillColor=none;strokeColor=none;rounded=0;" vertex="1" parent="1">
          <mxGeometry x="95" y="250" width="90" height="20" as="geometry" />
        </mxCell>
        <mxCell id="LVlQhqxn5yzrMmVcVjSm-176" value="" style="fontColor=#0066CC;verticalAlign=top;verticalLabelPosition=bottom;labelPosition=center;align=center;html=1;outlineConnect=0;fillColor=#CCCCCC;strokeColor=#6881B3;gradientColor=none;gradientDirection=north;strokeWidth=2;shape=mxgraph.networks.switch;" vertex="1" parent="1">
          <mxGeometry x="360" y="210" width="90" height="30" as="geometry" />
        </mxCell>
        <mxCell id="LVlQhqxn5yzrMmVcVjSm-177" value="" style="endArrow=classic;html=1;rounded=0;entryX=0;entryY=0.5;entryDx=0;entryDy=0;entryPerimeter=0;" edge="1" parent="1" target="LVlQhqxn5yzrMmVcVjSm-176">
          <mxGeometry width="50" height="50" relative="1" as="geometry">
            <mxPoint x="190" y="224.5" as="sourcePoint" />
            <mxPoint x="260" y="224.5" as="targetPoint" />
          </mxGeometry>
        </mxCell>
        <mxCell id="LVlQhqxn5yzrMmVcVjSm-178" value="COMPUTER 1&amp;nbsp;" style="text;html=1;resizable=0;autosize=1;align=center;verticalAlign=middle;points=[];fillColor=none;strokeColor=none;rounded=0;" vertex="1" parent="1">
          <mxGeometry x="680" y="110" width="100" height="20" as="geometry" />
        </mxCell>
        <mxCell id="LVlQhqxn5yzrMmVcVjSm-179" value="SWITCH" style="text;html=1;resizable=0;autosize=1;align=center;verticalAlign=middle;points=[];fillColor=none;strokeColor=none;rounded=0;" vertex="1" parent="1">
          <mxGeometry x="375" y="190" width="60" height="20" as="geometry" />
        </mxCell>
        <mxCell id="LVlQhqxn5yzrMmVcVjSm-181" value="" style="endArrow=classic;html=1;rounded=0;entryX=0;entryY=0.85;entryDx=0;entryDy=0;entryPerimeter=0;" edge="1" parent="1" target="LVlQhqxn5yzrMmVcVjSm-185">
          <mxGeometry width="50" height="50" relative="1" as="geometry">
            <mxPoint x="450" y="224.41" as="sourcePoint" />
            <mxPoint x="640" y="280" as="targetPoint" />
            <Array as="points">
              <mxPoint x="570" y="224" />
            </Array>
          </mxGeometry>
        </mxCell>
        <mxCell id="LVlQhqxn5yzrMmVcVjSm-182" value="" style="endArrow=classic;html=1;rounded=0;" edge="1" parent="1" target="LVlQhqxn5yzrMmVcVjSm-184">
          <mxGeometry width="50" height="50" relative="1" as="geometry">
            <mxPoint x="440" y="210" as="sourcePoint" />
            <mxPoint x="650" y="80" as="targetPoint" />
            <Array as="points">
              <mxPoint x="440" y="80" />
            </Array>
          </mxGeometry>
        </mxCell>
        <mxCell id="LVlQhqxn5yzrMmVcVjSm-183" value="COMPUTER 2" style="text;html=1;resizable=0;autosize=1;align=center;verticalAlign=middle;points=[];fillColor=none;strokeColor=none;rounded=0;" vertex="1" parent="1">
          <mxGeometry x="665" y="310" width="90" height="20" as="geometry" />
        </mxCell>
        <mxCell id="LVlQhqxn5yzrMmVcVjSm-184" value="" style="fontColor=#0066CC;verticalAlign=top;verticalLabelPosition=bottom;labelPosition=center;align=center;html=1;outlineConnect=0;fillColor=#CCCCCC;strokeColor=#6881B3;gradientColor=none;gradientDirection=north;strokeWidth=2;shape=mxgraph.networks.pc;" vertex="1" parent="1">
          <mxGeometry x="665" y="40" width="100" height="70" as="geometry" />
        </mxCell>
        <mxCell id="LVlQhqxn5yzrMmVcVjSm-185" value="" style="fontColor=#0066CC;verticalAlign=top;verticalLabelPosition=bottom;labelPosition=center;align=center;html=1;outlineConnect=0;fillColor=#CCCCCC;strokeColor=#6881B3;gradientColor=none;gradientDirection=north;strokeWidth=2;shape=mxgraph.networks.pc;" vertex="1" parent="1">
          <mxGeometry x="660" y="240" width="100" height="70" as="geometry" />
        </mxCell>
      </root>
    </mxGraphModel>
  </diagram>
</mxfile>
